<?xml version="1.0" encoding="utf-8"?>
<!-- Generator: Adobe Illustrator 21.1.0, SVG Export Plug-In . SVG Version: 6.00 Build 0)  -->
<svg version="1.1" id="Capa_1" xmlns="http://www.w3.org/2000/svg" xmlns:xlink="http://www.w3.org/1999/xlink" x="0px" y="0px"
	 viewBox="0 0 330.5 331" style="enable-background:new 0 0 330.5 331;" xml:space="preserve">
<style type="text/css">
	.st0{fill:#FFFFFF;}
</style>
<g>
	<path d="M330.5,165.2c0,91.3-74,165.2-165.3,165.2C74,330.5,0,256.5,0,165.2C0,74,74,0,165.2,0C256.5,0,330.5,74,330.5,165.2"/>
	<path class="st0" d="M127,114.9c-1.8,0-3.6,0.2-5.2,0.7c-1.6,0.5-3.1,1.3-4.4,2.3c-1.3,1.1-2.3,2.4-3,4.1c-0.7,1.6-1.1,3.6-1.1,5.8
		c0,3.1,1.1,6.2,3.4,9.3c2.3,3.1,5.1,6.3,8.5,9.6c3.4,3.3,7.1,6.7,11,10.3c3.9,3.6,7.6,7.3,11,11.3c3.4,3.9,6.2,8.2,8.5,12.6
		c2.3,4.5,3.4,9.3,3.4,14.4c0,5.7-1,10.9-2.9,15.3c-2,4.5-4.7,8.3-8.4,11.4c-3.6,3.1-8,5.5-13.2,7.1c-5.1,1.6-10.9,2.5-17.2,2.5
		c-5.5,0-10.5-0.8-15-2.3c-4.5-1.6-8.4-3.5-11.9-5.7c-3.5-2.3-6.4-4.7-8.9-7.2c-2.5-2.6-4.4-4.9-5.7-6.9l4.2-3c1,1.2,2.4,2.5,4,3.9
		c1.6,1.4,3.4,2.7,5.3,3.9c2,1.2,4,2.2,6.3,2.9c2.2,0.8,4.5,1.1,6.8,1.1c5.7,0,10.4-1.4,14.1-4.1c3.7-2.8,5.5-6.8,5.5-12.3
		c0-3-1-6.2-3-9.4c-2-3.2-4.5-6.6-7.5-10c-3-3.4-6.3-7-9.8-10.6c-3.5-3.7-6.8-7.5-9.8-11.4c-3-3.9-5.5-7.9-7.5-12.1
		c-2-4.1-3-8.5-3-12.9c0-5,1-9.4,3-13.2c2-3.7,4.7-6.9,8.1-9.3c3.4-2.5,7.3-4.3,11.6-5.6c4.3-1.2,8.8-1.8,13.5-1.8
		c5.3,0,10.2,0.5,14.6,1.4c4.4,1,8.2,2.4,11.3,4.4c3.1,2,5.6,4.4,7.3,7.4c1.7,3,2.6,6.4,2.6,10.3c0,3-1,5.7-3,7.9
		c-2,2.2-4.8,3.4-8.4,3.4c-3.4,0-6-0.7-7.8-2.2c-1.8-1.5-2.7-3.5-2.7-6c0-1.7,0.4-3,1.3-3.9c0.8-1,1.8-1.7,2.8-2.3
		c1-0.6,2-1.1,2.8-1.6c0.8-0.4,1.3-1,1.3-1.7c0-2.2-1.2-4-3.6-5.3C133.8,115.6,130.7,114.9,127,114.9"/>
	<path class="st0" d="M217.4,114.9c-1.8,0-3.6,0.2-5.2,0.7c-1.6,0.5-3.1,1.3-4.4,2.3c-1.3,1.1-2.3,2.4-3,4.1
		c-0.7,1.6-1.1,3.6-1.1,5.8c0,3.1,1.1,6.2,3.4,9.3c2.3,3.1,5.1,6.3,8.5,9.6c3.4,3.3,7.1,6.7,11,10.3c3.9,3.6,7.6,7.3,11,11.3
		c3.4,3.9,6.2,8.2,8.5,12.6c2.3,4.5,3.4,9.3,3.4,14.4c0,5.7-1,10.9-2.9,15.3c-2,4.5-4.7,8.3-8.4,11.4c-3.6,3.1-8,5.5-13.2,7.1
		c-5.1,1.6-10.9,2.5-17.2,2.5c-5.5,0-10.5-0.8-15-2.3c-4.5-1.6-8.4-3.5-11.9-5.7c-3.5-2.3-6.4-4.7-8.9-7.2c-2.5-2.6-4.4-4.9-5.7-6.9
		l4.2-3c1,1.2,2.4,2.5,3.9,3.9c1.6,1.4,3.4,2.7,5.3,3.9c2,1.2,4,2.2,6.3,2.9c2.2,0.8,4.5,1.1,6.8,1.1c5.7,0,10.4-1.4,14.1-4.1
		c3.7-2.8,5.5-6.8,5.5-12.3c0-3-1-6.2-3-9.4c-2-3.2-4.5-6.6-7.5-10c-3-3.4-6.3-7-9.8-10.6c-3.5-3.7-6.8-7.5-9.8-11.4
		c-3-3.9-5.5-7.9-7.5-12.1c-2-4.1-3-8.5-3-12.9c0-5,1-9.4,3.1-13.2c2-3.7,4.7-6.9,8.1-9.3c3.4-2.5,7.3-4.3,11.6-5.6
		c4.3-1.2,8.8-1.8,13.5-1.8c5.3,0,10.2,0.5,14.6,1.4c4.4,1,8.2,2.4,11.3,4.4c3.2,2,5.6,4.4,7.3,7.4c1.7,3,2.6,6.4,2.6,10.3
		c0,3-1,5.7-3,7.9c-2,2.2-4.8,3.4-8.4,3.4c-3.4,0-6-0.7-7.8-2.2c-1.8-1.5-2.7-3.5-2.7-6c0-1.7,0.4-3,1.3-3.9c0.8-1,1.8-1.7,2.8-2.3
		c1-0.6,2-1.1,2.8-1.6c0.8-0.4,1.3-1,1.3-1.7c0-2.2-1.2-4-3.6-5.3C224.2,115.6,221.1,114.9,217.4,114.9"/>
</g>
</svg>
